<?xml version="1.0" standalone="no"?><!DOCTYPE svg PUBLIC "-//W3C//DTD SVG 1.1//EN" "http://www.w3.org/Graphics/SVG/1.1/DTD/svg11.dtd"><svg t="1525682030052" class="icon" style="" viewBox="0 0 1025 1024" version="1.1" xmlns="http://www.w3.org/2000/svg" p-id="3450" xmlns:xlink="http://www.w3.org/1999/xlink" width="64.0625" height="64"><defs><style type="text/css"></style></defs><path d="M998.488682 495.709091l-146.618182-146.618182c-9.309091-9.309091-27.927273-9.309091-37.236364 0-9.309091 9.309091-9.309091 27.927273 0 37.236364l146.618182 146.618182c9.309091 9.309091 11.636364 30.254545 6.981818 44.218182-2.327273 4.654545-9.309091 27.927273-30.254545 27.927273l-69.818182 0c-13.963636 0-16.290909-4.654545-16.290909 9.309091l0 186.181818c0 62.836364-46.545455 100.072727-79.127273 100.072727l-137.309091 0L635.434137 588.8c0-13.963636 0-9.309091-13.963636-9.309091l-225.745455 0c-13.963636 0-27.927273-4.654545-27.927273 9.309091l0 314.181818-114.036364 0c-30.254545 0-74.472727-39.563636-74.472727-100.072727l0-186.181818c0-13.963636-4.654545-9.309091-20.945455-9.309091l-69.818182 0c-20.945455 0-27.927273-23.272727-30.254545-27.927273-2.327273-4.654545-6.981818-25.6 6.981818-39.563636L488.815955 111.709091c6.981818-6.981818 13.963636-11.636364 23.272727-11.636364 9.309091 0 16.290909 2.327273 23.272727 9.309091l162.909091 160.581818c9.309091 9.309091 27.927273 9.309091 37.236364 0 9.309091-9.309091 9.309091-27.927273 0-37.236364l-162.909091-151.272727C556.306864 65.163636 535.36141 67.490909 512.088682 67.490909c0 0 0 0 0 0-23.272727 0-44.218182-2.327273-60.509091 16.290909l-425.890909 418.909091c-25.6 25.6-32.581818 67.490909-18.618182 100.072727 13.963636 32.581818 44.218182 58.181818 79.127273 58.181818l37.236364 0 0 141.963636c0 79.127273 51.2 155.927273 128 155.927273l521.309091 0c76.8 0 132.654545-76.8 132.654545-155.927273l0-141.963636 32.581818 0c34.909091 0 67.490909-27.927273 79.127273-62.836364C1031.0705 565.527273 1024.088682 521.309091 998.488682 495.709091zM418.997773 633.018182 581.906864 633.018182l0 269.963636L418.997773 902.981818 418.997773 633.018182z" p-id="3451" fill="#bfbfbf"></path></svg>