<?xml version="1.0" standalone="no"?><!DOCTYPE svg PUBLIC "-//W3C//DTD SVG 1.1//EN" "http://www.w3.org/Graphics/SVG/1.1/DTD/svg11.dtd"><svg t="1525691106925" class="icon" style="" viewBox="0 0 1024 1024" version="1.1" xmlns="http://www.w3.org/2000/svg" p-id="5694" xmlns:xlink="http://www.w3.org/1999/xlink" width="64" height="64"><defs><style type="text/css"></style></defs><path d="M266.181 324.416c0 36.492 29.581 66.075 66.075 66.075s66.075-29.581 66.075-66.075c0-36.492-29.581-66.075-66.075-66.075-36.492 0-66.075 29.581-66.075 66.075z" p-id="5695" fill="#1296db"></path><path d="M458.115 881.328c-113.269 0-224.963-44.051-308.346-127.427-81.804-81.804-127.427-191.929-127.427-306.773 0-116.417 45.62-224.963 127.427-306.773 169.905-169.905 445.218-169.905 615.121 0 81.804 81.804 127.427 191.929 127.427 306.773 0 116.417-45.62 224.963-127.427 306.773-12.588 12.588-31.466 12.588-44.051 0s-12.588-31.466 0-44.051c70.796-70.796 108.549-163.616 108.549-262.725s-39.329-191.929-108.549-262.725c-144.738-144.738-380.711-144.738-525.451 0-70.796 70.796-108.549 163.616-108.549 262.725s39.329 191.929 108.549 262.725c94.39 94.39 232.837 130.579 360.261 95.967 17.302-4.722 34.613 4.722 39.329 22.026 4.722 17.302-4.722 34.613-22.026 39.329-39.329 7.867-77.089 14.16-114.844 14.16z" p-id="5696" fill="#1296db"></path><path d="M986.707 1007.19c-7.867 0-15.732-3.147-22.026-9.437l-229.685-229.685c-12.588-12.588-12.588-31.466 0-44.051s31.466-12.588 44.051 0l229.685 229.685c12.588 12.588 12.588 31.466 0 44.051-6.292 6.292-14.16 9.437-22.026 9.437z" p-id="5697" fill="#1296db"></path></svg>